<svg width="38" height="38" viewBox="0 0 38 38" fill="none" xmlns="http://www.w3.org/2000/svg">
<path d="M19 4.74999C21.6188 4.74999 23.75 6.88116 23.75 9.49999V17.043C25.5597 15.4217 28.5396 15.4929 30.2749 17.2251C31.1654 18.1158 31.6656 19.3238 31.6656 20.5833C31.6656 21.8429 31.1654 23.0508 30.2749 23.9416L19 35.2165L7.72508 23.9416C6.83459 23.0508 6.33434 21.8429 6.33434 20.5833C6.33434 19.3238 6.83459 18.1158 7.72508 17.2251C9.45725 15.4913 12.4418 15.4201 14.25 17.043V9.49999C14.25 6.88116 16.3812 4.74999 19 4.74999ZM20.5833 24.6778L20.5833 9.49999C20.5651 9.09231 20.3903 8.70738 20.0954 8.42534C19.8004 8.1433 19.4081 7.9859 19 7.9859C18.5919 7.9859 18.1996 8.1433 17.9046 8.42534C17.6097 8.70738 17.4349 9.09231 17.4167 9.49999L17.4167 24.6778L12.2027 19.4639C11.9013 19.1757 11.5004 19.0148 11.0833 19.0148C10.6663 19.0148 10.2653 19.1757 9.96391 19.4639C9.66708 19.7608 9.50034 20.1635 9.50034 20.5833C9.50034 21.0032 9.66708 21.4058 9.96391 21.7027L19 30.7388L28.0361 21.7027C28.3329 21.4058 28.4997 21.0032 28.4997 20.5833C28.4997 20.1635 28.3329 19.7608 28.0361 19.4639C27.7347 19.1757 27.3337 19.0148 26.9167 19.0148C26.4996 19.0148 26.0987 19.1757 25.7972 19.4639L20.5833 24.6778Z" fill="#585684"/>
</svg>
