<svg width="223" height="224" viewBox="0 0 223 224" fill="none" xmlns="http://www.w3.org/2000/svg">
<g filter="url(#filter0_d_55_87)">
<path d="M154.797 30.5H68.2031C47.1041 30.5 30 47.6041 30 68.7031V155.297C30 176.396 47.1041 193.5 68.2031 193.5H154.797C175.896 193.5 193 176.396 193 155.297V68.7031C193 47.6041 175.896 30.5 154.797 30.5Z" fill="#5865F2"/>
<mask id="mask0_55_87" style="mask-type:luminance" maskUnits="userSpaceOnUse" x="47" y="62" width="129" height="100">
<path d="M47.8281 62.9727H175.172V161.619H47.8281V62.9727Z" fill="white"/>
</mask>
<g mask="url(#mask0_55_87)">
<path d="M155.63 71.7574C147.373 67.9681 138.661 65.2656 129.709 63.7176C129.628 63.7028 129.544 63.7138 129.469 63.7492C129.395 63.7846 129.333 63.8426 129.293 63.915C128.174 65.9054 126.933 68.5032 126.065 70.5445C116.277 69.0788 106.54 69.0788 96.9528 70.5445C96.0843 68.4573 94.7994 65.9054 93.675 63.915C93.6336 63.8438 93.5715 63.7868 93.4971 63.7516C93.4226 63.7163 93.3392 63.7045 93.2579 63.7176C84.3058 65.2621 75.5926 67.9648 67.3377 71.7574C67.2675 71.788 67.208 71.8391 67.1671 71.9039C50.6583 96.5678 46.1363 120.626 48.3546 144.385C48.3681 144.503 48.4277 144.61 48.5202 144.683C59.4119 152.682 69.9629 157.539 80.3179 160.757C80.3985 160.781 80.4844 160.78 80.5642 160.754C80.644 160.728 80.714 160.678 80.7649 160.611C83.2143 157.266 85.3976 153.739 87.2702 150.03C87.296 149.979 87.3107 149.923 87.3134 149.867C87.3161 149.81 87.3067 149.753 87.2858 149.7C87.265 149.647 87.2331 149.599 87.1923 149.559C87.1515 149.519 87.1028 149.489 87.0493 149.469C83.5855 148.155 80.288 146.553 77.1158 144.734C77.0581 144.7 77.0095 144.653 76.9746 144.595C76.9396 144.538 76.9192 144.473 76.9152 144.406C76.9113 144.339 76.9238 144.272 76.9518 144.212C76.9798 144.151 77.0224 144.097 77.0757 144.057C77.7449 143.557 78.4026 143.041 79.0483 142.511C79.1049 142.464 79.1733 142.434 79.246 142.424C79.3186 142.415 79.3926 142.425 79.4596 142.455C100.301 151.97 122.863 151.97 143.457 142.455C143.525 142.423 143.6 142.411 143.673 142.42C143.747 142.429 143.817 142.459 143.875 142.506C144.521 143.039 145.18 143.556 145.852 144.057C145.906 144.097 145.949 144.15 145.977 144.211C146.005 144.271 146.019 144.338 146.015 144.405C146.012 144.472 145.992 144.537 145.957 144.594C145.923 144.652 145.875 144.7 145.817 144.734C142.643 146.588 139.319 148.17 135.879 149.464C135.825 149.484 135.777 149.516 135.737 149.556C135.696 149.597 135.665 149.645 135.645 149.699C135.624 149.752 135.615 149.809 135.618 149.866C135.622 149.923 135.637 149.979 135.663 150.03C137.568 153.709 139.74 157.244 142.162 160.606C142.212 160.674 142.282 160.726 142.362 160.753C142.442 160.78 142.528 160.782 142.609 160.757C153.015 157.539 163.566 152.682 174.458 144.683C174.505 144.649 174.543 144.605 174.572 144.555C174.6 144.504 174.618 144.448 174.624 144.391C177.279 116.922 170.176 93.0608 155.795 71.909C155.76 71.8401 155.701 71.7862 155.63 71.7574ZM90.3825 129.919C84.1076 129.919 78.9375 124.158 78.9375 117.084C78.9375 110.009 84.0077 104.249 90.3825 104.249C96.807 104.249 101.927 110.06 101.826 117.084C101.826 124.158 96.7567 129.919 90.3825 129.919ZM132.696 129.919C126.421 129.919 121.252 124.158 121.252 117.084C121.252 110.009 126.321 104.249 132.696 104.249C139.121 104.249 144.241 110.06 144.141 117.084C144.141 124.158 139.121 129.919 132.696 129.919Z" fill="white"/>
</g>
</g>
<defs>
<filter id="filter0_d_55_87" x="0" y="0.5" width="223" height="223" filterUnits="userSpaceOnUse" color-interpolation-filters="sRGB">
<feFlood flood-opacity="0" result="BackgroundImageFix"/>
<feColorMatrix in="SourceAlpha" type="matrix" values="0 0 0 0 0 0 0 0 0 0 0 0 0 0 0 0 0 0 127 0" result="hardAlpha"/>
<feOffset/>
<feGaussianBlur stdDeviation="15"/>
<feComposite in2="hardAlpha" operator="out"/>
<feColorMatrix type="matrix" values="0 0 0 0 0.677778 0 0 0 0 0.666666 0 0 0 0 1 0 0 0 1 0"/>
<feBlend mode="normal" in2="BackgroundImageFix" result="effect1_dropShadow_55_87"/>
<feBlend mode="normal" in="SourceGraphic" in2="effect1_dropShadow_55_87" result="shape"/>
</filter>
</defs>
</svg>
