<svg width="15" height="16" viewBox="0 0 15 16" fill="none" xmlns="http://www.w3.org/2000/svg">
<path d="M12.9444 14.4H2.05556V5.6H12.9444M10.6111 0V1.6H4.38889V0H2.83333V1.6H2.05556C1.19222 1.6 0.5 2.312 0.5 3.2V14.4C0.5 14.8243 0.663888 15.2313 0.955612 15.5314C1.24733 15.8314 1.643 16 2.05556 16H12.9444C13.357 16 13.7527 15.8314 14.0444 15.5314C14.3361 15.2313 14.5 14.8243 14.5 14.4V3.2C14.5 2.77565 14.3361 2.36869 14.0444 2.06863C13.7527 1.76857 13.357 1.6 12.9444 1.6H12.1667V0M11.3889 8.8H7.5V12.8H11.3889V8.8Z" fill="#01324B"/>
</svg>
