<svg width="24" height="24" viewBox="0 0 24 24" fill="none" xmlns="http://www.w3.org/2000/svg">
<g clip-path="url(#clip0_48_145)">
<path d="M20.317 4.49199C18.787 3.80199 17.147 3.29199 15.432 3.00199C15.4167 2.99906 15.4009 3.00095 15.3868 3.0074C15.3726 3.01385 15.3608 3.02454 15.353 3.03799C15.143 3.40699 14.909 3.88799 14.745 4.26799C12.9261 3.99673 11.0769 3.99673 9.25799 4.26799C9.07602 3.84652 8.87002 3.43585 8.64099 3.03799C8.63295 3.02465 8.62119 3.01395 8.60716 3.0072C8.59313 3.00045 8.57743 2.99795 8.56199 2.99999C6.84799 3.28999 5.20799 3.79999 3.67699 4.49099C3.66454 4.49763 3.65363 4.50683 3.64499 4.51799C0.532992 9.09299 -0.320008 13.555 0.0989923 17.961C0.100158 17.9718 0.103508 17.9822 0.108837 17.9917C0.114167 18.0011 0.121364 18.0094 0.129992 18.016C1.94609 19.3389 3.97212 20.3463 6.12299 20.996C6.138 21.0003 6.15396 21.0002 6.16888 20.9956C6.18381 20.9909 6.19706 20.9821 6.20699 20.97C6.66914 20.3506 7.0792 19.694 7.43299 19.007C7.43789 18.9976 7.44072 18.9872 7.44127 18.9767C7.44183 18.9661 7.44011 18.9555 7.43622 18.9456C7.43233 18.9358 7.42637 18.9269 7.41874 18.9195C7.41111 18.9121 7.40199 18.9065 7.39199 18.903C6.74567 18.6605 6.11969 18.3669 5.51999 18.025C5.50921 18.0188 5.50012 18.0101 5.49355 17.9996C5.48698 17.989 5.48312 17.977 5.48233 17.9646C5.48153 17.9523 5.48383 17.9399 5.48901 17.9286C5.49418 17.9173 5.50208 17.9075 5.51199 17.9C5.63866 17.8067 5.76266 17.711 5.88399 17.613C5.89503 17.6047 5.90801 17.5995 5.92168 17.5977C5.93534 17.596 5.94923 17.5978 5.96199 17.603C9.88899 19.367 14.142 19.367 18.023 17.603C18.0358 17.5975 18.0498 17.5954 18.0637 17.597C18.0775 17.5986 18.0908 17.6037 18.102 17.612C18.222 17.7107 18.346 17.8067 18.474 17.9C18.484 17.9073 18.492 17.917 18.4974 17.9282C18.5027 17.9394 18.5052 17.9517 18.5046 17.9641C18.504 17.9765 18.5004 17.9885 18.494 17.9992C18.4876 18.0098 18.4787 18.0187 18.468 18.025C17.8713 18.3683 17.247 18.6607 16.595 18.902C16.585 18.9056 16.5758 18.9114 16.5682 18.9188C16.5606 18.9263 16.5546 18.9353 16.5507 18.9452C16.5468 18.9551 16.5451 18.9658 16.5457 18.9764C16.5463 18.9871 16.5491 18.9975 16.554 19.007C16.914 19.694 17.326 20.348 17.779 20.969C17.7887 20.9814 17.8018 20.9907 17.8168 20.9957C17.8317 21.0006 17.8478 21.0011 17.863 20.997C20.0171 20.348 22.0462 19.3402 23.865 18.016C23.8737 18.0096 23.881 18.0015 23.8865 17.9923C23.892 17.983 23.8956 17.9727 23.897 17.962C24.397 12.868 23.059 8.44199 20.348 4.51999C20.3413 4.50724 20.3303 4.49731 20.317 4.49199ZM8.01999 15.278C6.83799 15.278 5.86299 14.209 5.86299 12.898C5.86299 11.586 6.81899 10.518 8.01999 10.518C9.22999 10.518 10.196 11.595 10.177 12.898C10.177 14.21 9.22099 15.278 8.01999 15.278ZM15.995 15.278C14.812 15.278 13.838 14.209 13.838 12.898C13.838 11.586 14.793 10.518 15.995 10.518C17.205 10.518 18.171 11.595 18.152 12.898C18.152 14.21 17.206 15.278 15.995 15.278Z" fill="#252829"/>
</g>
<defs>
<clipPath id="clip0_48_145">
<rect width="24" height="24" fill="white"/>
</clipPath>
</defs>
</svg>
